<svg xmlns="http://www.w3.org/2000/svg" viewBox="50 20 800 960" preserveAspectRatio="xMidYMid meet" font-family="'JetBrains Mono', ui-monospace, SFMono-Regular, monospace">
  <defs>
    <marker id="arrow" viewBox="0 0 10 10" refX="8" refY="5" markerWidth="7" markerHeight="7" orient="auto-start-reverse">
      <path d="M 0 0 L 10 5 L 0 10 z" fill="#1a2744"/>
    </marker>
    <marker id="arrow-orange" viewBox="0 0 10 10" refX="8" refY="5" markerWidth="7" markerHeight="7" orient="auto-start-reverse">
      <path d="M 0 0 L 10 5 L 0 10 z" fill="#d4702a"/>
    </marker>
  </defs>

  <rect width="900" height="980" fill="#f5f2ed"/>

  <!-- Title -->
  <text x="450" y="46" font-family="'Newsreader', Georgia, serif" font-size="28" font-style="italic" fill="#1a2744" text-anchor="middle">The react-native-nim Pipeline</text>
  <line x1="345" y1="62" x2="555" y2="62" stroke="#d4702a" stroke-width="1.5"/>
  <text x="450" y="84" font-size="12" fill="#6b7280" text-anchor="middle" letter-spacing="2.5">NIM · JSI · REACT NATIVE</text>

  <!-- ============ STAGE 01 ============ -->
  <text x="240" y="124" font-size="12" fill="#d4702a" letter-spacing="2">STAGE 01 — AUTHOR</text>
  <rect x="240" y="134" width="420" height="112" fill="none" stroke="#1a2744" stroke-width="1.5"/>
  <text x="258" y="162" font-size="16" fill="#1a2744" font-weight="600">Write Nim with {.exportc.}</text>
  <line x1="258" y1="172" x2="400" y2="172" stroke="#1a2744" stroke-width="0.5" opacity="0.3"/>
  <text x="258" y="196" font-size="13" fill="#1c1c1c">proc add(a, b: cint): cint {.exportc.}</text>
  <text x="258" y="216" font-size="13" fill="#1c1c1c">proc greet(name: cstring): cstring</text>
  <text x="258" y="234" font-size="13" fill="#1c1c1c" opacity="0.6">  {.exportc, allocated.}</text>

  <!-- Arrow 1 -->
  <line x1="450" y1="246" x2="450" y2="286" stroke="#1a2744" stroke-width="1.5" marker-end="url(#arrow)"/>
  <text x="460" y="272" font-size="11" fill="#6b7280">nim c</text>

  <!-- ============ STAGE 02 ============ -->
  <text x="240" y="306" font-size="12" fill="#d4702a" letter-spacing="2">STAGE 02 — COMPILE</text>
  <rect x="240" y="316" width="420" height="100" fill="none" stroke="#1a2744" stroke-width="1.5"/>
  <text x="258" y="344" font-size="16" fill="#1a2744" font-weight="600">Nim &#8594; C &#8594; static library</text>
  <line x1="258" y1="354" x2="400" y2="354" stroke="#1a2744" stroke-width="0.5" opacity="0.3"/>
  <rect x="258" y="366" width="186" height="36" fill="#1a2744"/>
  <text x="272" y="390" font-size="13" fill="#f5f2ed">iOS  &#8594;  libnim.a</text>
  <rect x="456" y="366" width="186" height="36" fill="none" stroke="#1a2744" stroke-width="1"/>
  <text x="470" y="390" font-size="13" fill="#1a2744">Android  &#8594;  libnim.so</text>

  <!-- Arrow 2 -->
  <line x1="450" y1="416" x2="450" y2="456" stroke="#1a2744" stroke-width="1.5" marker-end="url(#arrow)"/>
  <text x="460" y="442" font-size="11" fill="#6b7280">parse exportc</text>

  <!-- ============ STAGE 03 ============ -->
  <text x="240" y="476" font-size="12" fill="#d4702a" letter-spacing="2">STAGE 03 — GENERATE</text>
  <rect x="240" y="486" width="420" height="96" fill="none" stroke="#d4702a" stroke-width="2"/>
  <text x="258" y="514" font-size="16" fill="#1a2744" font-weight="600">Python code generator</text>
  <line x1="258" y1="524" x2="400" y2="524" stroke="#1a2744" stroke-width="0.5" opacity="0.3"/>
  <text x="258" y="546" font-size="13" fill="#1c1c1c">tools/bindings/  parser · models · orchestrator</text>
  <text x="258" y="566" font-size="13" fill="#1c1c1c" opacity="0.6">reads generator_config.json</text>

  <!-- Fan-out -->
  <line x1="450" y1="582" x2="450" y2="610" stroke="#d4702a" stroke-width="1.5"/>
  <line x1="160" y1="610" x2="740" y2="610" stroke="#d4702a" stroke-width="1.5"/>
  <line x1="160" y1="610" x2="160" y2="640" stroke="#d4702a" stroke-width="1.5" marker-end="url(#arrow-orange)"/>
  <line x1="450" y1="610" x2="450" y2="640" stroke="#d4702a" stroke-width="1.5" marker-end="url(#arrow-orange)"/>
  <line x1="740" y1="610" x2="740" y2="640" stroke="#d4702a" stroke-width="1.5" marker-end="url(#arrow-orange)"/>

  <!-- Output boxes -->
  <rect x="60" y="650" width="200" height="128" fill="none" stroke="#1a2744" stroke-width="1.5"/>
  <text x="74" y="676" font-size="12" fill="#d4702a" letter-spacing="1.5">iOS</text>
  <line x1="74" y1="684" x2="120" y2="684" stroke="#d4702a" stroke-width="1"/>
  <text x="74" y="706" font-size="13" fill="#1a2744">C++ wrapper</text>
  <text x="74" y="726" font-size="13" fill="#1a2744">Obj-C++ bridge</text>
  <text x="74" y="746" font-size="13" fill="#1a2744">TurboModule</text>
  <text x="74" y="768" font-size="12" fill="#1a2744" opacity="0.6">.mm / .h</text>

  <rect x="350" y="650" width="200" height="128" fill="none" stroke="#1a2744" stroke-width="1.5"/>
  <text x="364" y="676" font-size="12" fill="#d4702a" letter-spacing="1.5">ANDROID</text>
  <line x1="364" y1="684" x2="430" y2="684" stroke="#d4702a" stroke-width="1"/>
  <text x="364" y="706" font-size="13" fill="#1a2744">JNI bridge</text>
  <text x="364" y="726" font-size="13" fill="#1a2744">Kotlin TurboModule</text>
  <text x="364" y="746" font-size="13" fill="#1a2744">CMake config</text>
  <text x="364" y="768" font-size="12" fill="#1a2744" opacity="0.6">.kt / .cpp / CMakeLists</text>

  <rect x="640" y="650" width="200" height="128" fill="none" stroke="#1a2744" stroke-width="1.5"/>
  <text x="654" y="676" font-size="12" fill="#d4702a" letter-spacing="1.5">TYPESCRIPT</text>
  <line x1="654" y1="684" x2="734" y2="684" stroke="#d4702a" stroke-width="1"/>
  <text x="654" y="706" font-size="13" fill="#1a2744">TurboModule spec</text>
  <text x="654" y="726" font-size="13" fill="#1a2744">Type-safe API</text>
  <text x="654" y="746" font-size="13" fill="#1a2744">NimBridge.d.ts</text>
  <text x="654" y="768" font-size="12" fill="#1a2744" opacity="0.6">.ts</text>

  <!-- Converge -->
  <line x1="160" y1="778" x2="160" y2="810" stroke="#1a2744" stroke-width="1.5"/>
  <line x1="450" y1="778" x2="450" y2="810" stroke="#1a2744" stroke-width="1.5"/>
  <line x1="740" y1="778" x2="740" y2="810" stroke="#1a2744" stroke-width="1.5"/>
  <line x1="160" y1="810" x2="740" y2="810" stroke="#1a2744" stroke-width="1.5"/>
  <line x1="450" y1="810" x2="450" y2="842" stroke="#1a2744" stroke-width="1.5" marker-end="url(#arrow)"/>

  <!-- ============ STAGE 04 ============ -->
  <text x="240" y="862" font-size="12" fill="#d4702a" letter-spacing="2">STAGE 04 — INVOKE</text>
  <rect x="240" y="872" width="420" height="100" fill="#1a2744"/>
  <text x="258" y="900" font-size="16" fill="#f5f2ed" font-weight="600">Call from JavaScript via JSI</text>
  <line x1="258" y1="910" x2="400" y2="910" stroke="#d4702a" stroke-width="1"/>
  <text x="258" y="932" font-size="13" fill="#f5f2ed">NimBridge.add(2, 3)</text>
  <text x="440" y="932" font-size="13" fill="#d4702a">// =&gt; 5</text>
  <text x="258" y="956" font-size="12" fill="#f5f2ed" opacity="0.6">synchronous · no JSON · no bridge queue</text>
</svg>
